<?xml version="1.0" encoding="UTF-8" standalone="no"?>
<svg
   height="800"
   width="1200"
   viewBox="-6.39108 -10.38875 55.38936 62.3325"
   version="1.1"
   id="svg8"
   sodipodi:docname="github.svg"
   inkscape:version="1.1.1 (3bf5ae0d25, 2021-09-20)"
   xmlns:inkscape="http://www.inkscape.org/namespaces/inkscape"
   xmlns:sodipodi="http://sodipodi.sourceforge.net/DTD/sodipodi-0.dtd"
   xmlns="http://www.w3.org/2000/svg"
   xmlns:svg="http://www.w3.org/2000/svg">
  <defs
     id="defs12" />
  <sodipodi:namedview
     id="namedview10"
     pagecolor="#ffffff"
     bordercolor="#666666"
     borderopacity="1.0"
     inkscape:pageshadow="2"
     inkscape:pageopacity="0.0"
     inkscape:pagecheckerboard="0"
     showgrid="false"
     inkscape:zoom="0.79625"
     inkscape:cx="599.68603"
     inkscape:cy="399.37206"
     inkscape:window-width="1920"
     inkscape:window-height="1060"
     inkscape:window-x="0"
     inkscape:window-y="20"
     inkscape:window-maximized="0"
     inkscape:current-layer="svg8" />
  <g
     fill="#fff"
     id="g6"
     style="fill:#1a1a1a"
     transform="matrix(1.0682409,0,0,1.0682409,-1.4537735,-5.4848838)">
    <path
       d="M 21.3035,0 C 9.5395,0 0,9.5373 0,21.3035 c 0,9.4122 6.1041,17.3976 14.5687,20.2146 1.0646,0.1972 1.4555,-0.4622 1.4555,-1.0249 0,-0.5076 -0.0198,-2.1861 -0.0289,-3.9662 -5.9266,1.2887 -7.1772,-2.5136 -7.1772,-2.5136 -0.9691,-2.462 -2.3654,-3.1171 -2.3654,-3.1171 -1.9329,-1.3222 0.1457,-1.295 0.1457,-1.295 2.1392,0.1502 3.2656,2.1956 3.2656,2.1956 1.9001,3.2565 4.9837,2.315 6.1994,1.7706 C 16.255,32.191 16.8067,31.2508 17.416,30.7188 12.6841,30.1805 7.71,28.3535 7.71,20.1905 c 0,-2.3255 0.8322,-4.2259 2.195,-5.7178 -0.2212,-0.537 -0.9504,-2.7037 0.2067,-5.638 0,0 1.789,-0.5723 5.8596,2.184 1.6994,-0.472 3.5218,-0.7088 5.3323,-0.7172 1.8104,0.008 3.6343,0.2451 5.3368,0.7172 4.0661,-2.7563 5.8526,-2.184 5.8526,-2.184 1.1596,2.9343 0.4304,5.101 0.2092,5.638 1.366,1.4919 2.1921,3.3923 2.1921,5.7178 0,8.1827 -4.9837,9.984 -9.7275,10.5114 0.7642,0.6611 1.445,1.9576 1.445,3.9451 0,2.8505 -0.0243,5.1446 -0.0243,5.8462 0,0.5673 0.3831,1.2316 1.463,1.0224 C 36.5108,38.6955 42.6071,30.7128 42.6071,21.3036 42.6071,9.5372 33.0691,0 21.3036,0"
       fill-rule="evenodd"
       id="path2"
       style="fill:#1a1a1a" />
    <path
       d="m 8.0689,30.587 c -0.047,0.1061 -0.2135,0.1379 -0.3651,0.0649 -0.155,-0.0695 -0.2413,-0.2138 -0.1913,-0.32 0.046,-0.1087 0.2124,-0.139 0.367,-0.0663 0.1545,0.0695 0.2426,0.2152 0.1894,0.3214 m 0.863,0.9625 C 8.8303,31.6437 8.6313,31.5999 8.4969,31.4511 8.3572,31.3026 8.3314,31.1036 8.4345,31.0084 c 0.1048,-0.0942 0.2974,-0.0501 0.4367,0.0984 0.1397,0.1503 0.1669,0.3475 0.0607,0.4427 m 0.8399,1.2268 c -0.1305,0.091 -0.3443,0.006 -0.4763,-0.1834 -0.1305,-0.1898 -0.1305,-0.417 0.003,-0.508 0.132,-0.091 0.3426,-0.009 0.4763,0.1788 0.1302,0.1926 0.1302,0.4198 -0.003,0.5126 m 1.1506,1.1855 c -0.1167,0.1287 -0.3654,0.0942 -0.5475,-0.0815 -0.1862,-0.1718 -0.238,-0.4156 -0.1213,-0.5444 0.1185,-0.129 0.3686,-0.0928 0.552,0.0815 0.185,0.1715 0.241,0.417 0.1168,0.5444 M 12.51,34.65 c -0.052,0.167 -0.291,0.2424 -0.5324,0.1715 -0.241,-0.073 -0.3986,-0.268 -0.35,-0.4367 0.0502,-0.1683 0.2908,-0.247 0.5338,-0.1711 0.2406,0.0727 0.3987,0.2667 0.3486,0.4364 m 1.7435,0.1275 c 0.006,0.1757 -0.1986,0.3214 -0.4519,0.3245 -0.2547,0.006 -0.461,-0.1365 -0.4639,-0.3094 0,-0.1774 0.2004,-0.3213 0.4547,-0.326 0.2533,-0.005 0.4611,0.1366 0.4611,0.3109 m 1.6223,-0.276 c 0.0303,0.171 -0.1457,0.3471 -0.3972,0.394 -0.2473,0.0455 -0.4763,-0.0607 -0.5077,-0.2303 -0.0307,-0.1757 0.1482,-0.3517 0.3955,-0.3972 0.2519,-0.0437 0.4773,0.0593 0.5094,0.2335"
       id="path4"
       style="fill:#1a1a1a" />
  </g>
</svg>
