<?xml version="1.0" encoding="UTF-8" standalone="no"?>
<svg
   height="800"
   width="1200"
   viewBox="-11.493675 -16.3118 99.61182 97.8708"
   version="1.1"
   id="svg6"
   sodipodi:docname="linkedin-icon-logo.svg"
   inkscape:version="1.1.1 (3bf5ae0d25, 2021-09-20)"
   xmlns:inkscape="http://www.inkscape.org/namespaces/inkscape"
   xmlns:sodipodi="http://sodipodi.sourceforge.net/DTD/sodipodi-0.dtd"
   xmlns="http://www.w3.org/2000/svg"
   xmlns:svg="http://www.w3.org/2000/svg">
  <defs
     id="defs10" />
  <sodipodi:namedview
     id="namedview8"
     pagecolor="#ffffff"
     bordercolor="#666666"
     borderopacity="1.0"
     inkscape:pageshadow="2"
     inkscape:pageopacity="0.0"
     inkscape:pagecheckerboard="0"
     showgrid="false"
     inkscape:zoom="0.7225"
     inkscape:cx="600"
     inkscape:cy="400"
     inkscape:window-width="1920"
     inkscape:window-height="1060"
     inkscape:window-x="0"
     inkscape:window-y="20"
     inkscape:window-maximized="0"
     inkscape:current-layer="svg6"
     showguides="true"
     inkscape:guide-bbox="true"
     inkscape:snap-bbox="true"
     inkscape:snap-bbox-edge-midpoints="true"
     inkscape:bbox-paths="true">
    <sodipodi:guide
       position="53.920347,81.558865"
       orientation="0,-1"
       id="guide1164" />
    <sodipodi:guide
       position="39.700318,16.311935"
       orientation="0,-1"
       id="guide1166" />
  </sodipodi:namedview>
  <g
     id="g1162"
     transform="matrix(1.4812499,0,0,1.4812499,6.3646227,-26.201161)">
    <path
       id="rect1085"
       style="fill:#1a1a1a;fill-rule:evenodd;stroke-width:1.88976;stroke-linecap:round;stroke-linejoin:round;paint-order:markers fill stroke"
       d="m 365.3457,331.85938 v 252.71679 h 78.55274 V 331.85938 Z"
       transform="matrix(0.1223385,0,0,0.1223385,-35.09085,-16.3118)" />
    <path
       id="path1469"
       style="fill:#1a1a1a;fill-rule:evenodd;stroke-width:1.88976;stroke-linecap:round;stroke-linejoin:round;paint-order:markers fill stroke"
       d="m 643.91797,325.57422 c -3.8006,-0.14108 -7.57412,-0.0206 -11.29492,0.35156 -3.72081,0.37221 -7.38969,0.9963 -10.98633,1.85742 -3.59665,0.86112 -7.1207,1.95949 -10.54883,3.28516 -3.42812,1.32567 -6.76132,2.87868 -9.97656,4.64453 -3.21524,1.76586 -6.31154,3.74411 -9.26953,5.92578 -2.958,2.18168 -5.77721,4.56554 -8.4336,7.13867 -2.65638,2.57313 -5.15052,5.33713 -7.46093,8.27735 -2.31042,2.94022 -4.43735,6.05689 -6.35743,9.33984 h -1.05468 v -34.53515 h -75.33008 v 252.70898 h 78.4707 V 459.55469 c 0,-4.12074 0.0969,-8.22594 0.34766,-12.25391 0.25081,-4.02797 0.65516,-7.97844 1.26758,-11.79297 0.61241,-3.81453 1.43276,-7.49222 2.51757,-10.97265 0.54241,-1.74022 1.15075,-3.43234 1.83203,-5.06641 0.68129,-1.63407 1.43553,-3.20982 2.26954,-4.72266 0.834,-1.51283 1.74746,-2.96137 2.74804,-4.33789 1.00058,-1.37652 2.08853,-2.68112 3.26953,-3.90625 1.18101,-1.22512 2.4548,-2.37104 3.83008,-3.42968 1.37528,-1.05865 2.85215,-2.03113 4.43555,-2.90821 1.5834,-0.87708 3.2747,-1.65941 5.08008,-2.33984 1.80537,-0.68044 3.72443,-1.25786 5.76562,-1.72656 2.0412,-0.46871 4.20328,-0.82842 6.49414,-1.07032 2.29087,-0.24189 4.71124,-0.36718 7.26563,-0.36718 2.51811,0 4.88064,0.14819 7.09765,0.43164 2.21702,0.28344 4.28758,0.70368 6.22266,1.24804 1.93509,0.54437 3.73394,1.21335 5.40625,1.9961 1.67231,0.78275 3.21778,1.67913 4.64649,2.67773 1.4287,0.99861 2.74106,2.09909 3.94531,3.29102 1.20425,1.19193 2.30181,2.47516 3.30078,3.83789 0.99896,1.36272 1.90005,2.80541 2.71289,4.3164 0.81284,1.51099 1.53576,3.08984 2.18164,4.72657 0.64588,1.63672 1.21481,3.33038 1.71289,5.07031 0.49808,1.73993 0.92549,3.5251 1.29492,5.3457 0.73888,3.6412 1.24079,7.42129 1.58008,11.25 0.33929,3.82871 0.51638,7.707 0.60938,11.54297 0.093,3.83597 0.10156,7.62998 0.10156,11.29297 v 122.88867 h 78.4707 l 0.0332,-138.63086 c 0,-8.50713 -0.22884,-16.76916 -0.78515,-24.71289 -0.27816,-3.97186 -0.63975,-7.86374 -1.09375,-11.66797 -0.45401,-3.80423 -1.00188,-7.51993 -1.65625,-11.13867 -0.65437,-3.61874 -1.41372,-7.14125 -2.29297,-10.55664 -0.87925,-3.41539 -1.87722,-6.72379 -3.00586,-9.91797 -1.12864,-3.19418 -2.38847,-6.27339 -3.79102,-9.22851 -1.40254,-2.95512 -2.94747,-5.78618 -4.64843,-8.48438 -1.70097,-2.6982 -3.55813,-5.26407 -5.58203,-7.6875 -2.02391,-2.42342 -4.21459,-4.70515 -6.58594,-6.83594 -2.37135,-2.13079 -4.9227,-4.11134 -7.66602,-5.93164 -2.74331,-1.8203 -5.67857,-3.4807 -8.81836,-4.97265 -3.13979,-1.49196 -6.48414,-2.81519 -10.04492,-3.96094 -3.56078,-1.14575 -7.33942,-2.11284 -11.3457,-2.89453 -4.00629,-0.78169 -8.24049,-1.37757 -12.7168,-1.77735 -4.4763,-0.39977 -9.19322,-0.60351 -14.16406,-0.60351 z"
       transform="matrix(0.1223385,0,0,0.1223385,-35.09085,-16.3118)" />
    <path
       id="path1465"
       style="fill:#1a1a1a;fill-rule:evenodd;stroke-width:1.88976;stroke-linecap:round;stroke-linejoin:round;paint-order:markers fill stroke"
       d="m 403.18945,206.16602 c -2.16466,0.0547 -4.33416,0.26434 -6.49218,0.63867 -2.15803,0.37433 -4.30438,0.91309 -6.42188,1.62109 -2.1175,0.708 -4.20693,1.58493 -6.25,2.64063 -2.04307,1.0557 -4.03986,2.2896 -5.97461,3.70703 -1.93475,1.41742 -3.80708,3.01933 -5.59961,4.8125 -1.79253,1.79317 -3.39382,3.6663 -4.81055,5.60156 -1.41672,1.93526 -2.65011,3.93311 -3.70507,5.97656 -1.05497,2.04345 -1.93143,4.13225 -2.63867,6.25 -0.70725,2.11775 -1.24364,4.26372 -1.61719,6.42188 -0.37356,2.15816 -0.58477,4.3275 -0.63867,6.49218 -0.0539,2.16469 0.0491,4.32559 0.30078,6.4629 0.2517,2.1373 0.65203,4.25208 1.19531,6.32812 0.54328,2.07604 1.22801,4.11286 2.04883,6.09375 0.82082,1.98089 1.77701,3.90597 2.86133,5.75781 1.08432,1.85184 2.29707,3.62946 3.63085,5.31836 1.33379,1.6889 2.79017,3.28918 4.35938,4.78125 1.56921,1.49207 3.25237,2.87733 5.04297,4.13867 1.7906,1.26135 3.6876,2.3978 5.68555,3.39454 1.99795,0.99673 4.09584,1.85255 6.2871,2.55078 2.19127,0.69823 4.47712,1.23963 6.84766,1.60547 2.37054,0.36583 4.82555,0.55709 7.36133,0.55664 3.14371,-5.7e-4 6.21346,-0.3206 9.17773,-0.92774 2.96428,-0.60713 5.82306,-1.50164 8.54688,-2.65429 2.72381,-1.15266 5.31205,-2.5621 7.73437,-4.19922 2.42233,-1.63713 4.68044,-3.50196 6.74024,-5.5625 2.0598,-2.06054 3.92234,-4.31733 5.55859,-6.74024 1.63625,-2.42291 3.04559,-5.0121 4.19727,-7.73633 1.15167,-2.72422 2.04627,-5.58433 2.65234,-8.54882 0.60607,-2.9645 0.92244,-6.03402 0.92188,-9.17774 -4.6e-4,-2.53578 -0.19191,-4.99092 -0.5586,-7.36133 -0.36668,-2.37041 -0.9084,-4.65469 -1.60742,-6.8457 -0.69902,-2.19101 -1.55528,-4.28952 -2.55273,-6.28711 -0.99746,-1.99759 -2.1345,-3.8954 -3.39649,-5.68555 -1.26199,-1.79014 -2.64799,-3.47234 -4.14062,-5.04101 -1.49264,-1.56868 -3.09187,-3.02425 -4.78125,-4.35742 -1.68938,-1.33318 -3.47004,-2.5433 -5.32227,-3.62696 -1.85223,-1.08365 -3.77663,-2.03926 -5.75781,-2.85937 -1.98118,-0.82011 -4.01947,-1.50629 -6.0957,-2.04883 -2.07624,-0.54254 -4.19073,-0.94242 -6.32813,-1.19336 -2.1374,-0.25094 -4.29628,-0.35156 -6.46094,-0.29687 z"
       transform="matrix(0.1223385,0,0,0.1223385,-35.09085,-16.3118)" />
  </g>
</svg>
