<?xml version="1.0" encoding="UTF-8" standalone="no"?>
<svg
   height="800"
   width="1200"
   viewBox="-35.20005 -41.33325 305.0671 247.9995"
   version="1.1"
   id="svg6"
   sodipodi:docname="youtube-black-logo.svg"
   inkscape:version="1.1.1 (3bf5ae0d25, 2021-09-20)"
   xmlns:inkscape="http://www.inkscape.org/namespaces/inkscape"
   xmlns:sodipodi="http://sodipodi.sourceforge.net/DTD/sodipodi-0.dtd"
   xmlns="http://www.w3.org/2000/svg"
   xmlns:svg="http://www.w3.org/2000/svg">
  <defs
     id="defs10" />
  <sodipodi:namedview
     id="namedview8"
     pagecolor="#ffffff"
     bordercolor="#666666"
     borderopacity="1.0"
     inkscape:pageshadow="2"
     inkscape:pageopacity="0.0"
     inkscape:pagecheckerboard="0"
     showgrid="false"
     inkscape:zoom="0.7225"
     inkscape:cx="600"
     inkscape:cy="400"
     inkscape:window-width="1366"
     inkscape:window-height="748"
     inkscape:window-x="0"
     inkscape:window-y="20"
     inkscape:window-maximized="0"
     inkscape:current-layer="svg6" />
  <path
     d="M229.763 25.817c-2.699-10.162-10.65-18.165-20.747-20.881C190.716 0 117.333 0 117.333 0S43.951 0 25.651 4.936C15.554 7.652 7.602 15.655 4.904 25.817 0 44.237 0 82.667 0 82.667s0 38.43 4.904 56.85c2.698 10.162 10.65 18.164 20.747 20.881 18.3 4.935 91.682 4.935 91.682 4.935s73.383 0 91.683-4.935c10.097-2.717 18.048-10.72 20.747-20.88 4.904-18.422 4.904-56.851 4.904-56.851s0-38.43-4.904-56.85"
     fill="#282828"
     id="path2"
     style="fill:#1a1a1a" />
  <path
     d="M93.333 117.558l61.334-34.89-61.334-34.893z"
     fill="#fff"
     id="path4" />
</svg>
